<svg width="86" height="19" viewBox="0 0 86 19" fill="none" xmlns="http://www.w3.org/2000/svg">
<path d="M5.47559 14.1406C4.59668 14.1406 3.73535 13.9941 2.8916 13.7012C2.05371 13.4082 1.32422 13.0039 0.703125 12.4883L1.73145 10.9062C2.86816 11.7793 4.13379 12.2158 5.52832 12.2158C6.34863 12.2158 6.9873 12.0811 7.44434 11.8115C7.90723 11.5361 8.13867 11.1553 8.13867 10.6689C8.13867 10.2119 7.89551 9.81348 7.40918 9.47363C6.92285 9.13379 6.1084 8.78809 4.96582 8.43652C3.62988 8.02637 2.6543 7.51953 2.03906 6.91602C1.42383 6.30664 1.11621 5.55957 1.11621 4.6748C1.11621 3.66699 1.52051 2.84668 2.3291 2.21387C3.1377 1.5752 4.18066 1.25586 5.45801 1.25586C6.23145 1.25586 7.00488 1.39941 7.77832 1.68652C8.55176 1.96777 9.24609 2.36914 9.86133 2.89062L8.7627 4.46387C8.3291 4.07715 7.80762 3.7666 7.19824 3.53223C6.59473 3.29785 5.99414 3.18066 5.39648 3.18066C4.71094 3.18066 4.16309 3.30957 3.75293 3.56738C3.34863 3.8252 3.14648 4.16504 3.14648 4.58691C3.14648 5.02051 3.35742 5.39551 3.7793 5.71191C4.20117 6.02246 4.97461 6.3623 6.09961 6.73145C7.5293 7.19434 8.56934 7.7334 9.21973 8.34863C9.87598 8.96387 10.2041 9.71387 10.2041 10.5986C10.2041 11.624 9.75879 12.4707 8.86816 13.1387C7.97754 13.8066 6.84668 14.1406 5.47559 14.1406ZM18.0088 14L15.1699 10.1504H14.1768V14H12.2344V0.675781H14.1768V8.38379H15.2402L17.8857 4.82422H20.2061L16.8574 9.29785L20.3818 14H18.0088ZM23.0537 18.21C22.4795 18.21 21.9287 18.1074 21.4014 17.9023L21.9023 16.2324C22.207 16.3379 22.5498 16.3906 22.9307 16.3906C23.3643 16.3906 23.707 16.291 23.959 16.0918C24.2109 15.8984 24.4365 15.5322 24.6357 14.9932L24.8379 14.4482L20.7686 4.82422H22.8955L24.9258 9.77246L25.7871 11.9082L26.543 9.77246L28.3096 4.82422H30.375L26.4199 15.5996C25.7812 17.3398 24.6592 18.21 23.0537 18.21ZM38.0391 9.96582L34.251 4.8418V14H32.2383V1.39648H34.04L38.5752 7.59277L43.1104 1.39648H44.9121V14H42.8906V4.8418L39.1113 9.96582H38.0391ZM52.04 14.2197C50.6104 14.2197 49.4502 13.7744 48.5596 12.8838C47.6748 11.9873 47.2324 10.8301 47.2324 9.41211C47.2324 8.01172 47.6719 6.86035 48.5508 5.95801C49.4355 5.05566 50.5576 4.60449 51.917 4.60449C52.9307 4.60449 53.8184 4.86523 54.5801 5.38672C55.3477 5.9082 55.9014 6.61133 56.2412 7.49609C56.5811 8.375 56.6631 9.33008 56.4873 10.3613H49.1924C49.3564 10.9707 49.7021 11.4717 50.2295 11.8643C50.7568 12.2568 51.3721 12.4531 52.0752 12.4531C53.1768 12.4531 54.1318 12.0576 54.9404 11.2666L56.0918 12.5234C55.6348 13.0566 55.0635 13.4727 54.3779 13.7715C53.6924 14.0703 52.9131 14.2197 52.04 14.2197ZM49.1748 8.70898H54.6855C54.5566 8.01172 54.2432 7.44922 53.7451 7.02148C53.2529 6.58789 52.6436 6.37109 51.917 6.37109C51.208 6.37109 50.6045 6.58496 50.1064 7.0127C49.6143 7.43457 49.3037 8 49.1748 8.70898ZM61.9189 14.123C60.999 14.123 60.2754 13.8418 59.748 13.2793C59.2207 12.7109 58.957 11.9492 58.957 10.9941V6.51172H57.2959V4.82422H58.957V2.67969H60.8994V4.82422H63.4922V6.51172H60.8994V10.9062C60.8994 11.3574 61.002 11.7031 61.207 11.9434C61.418 12.1836 61.7227 12.3037 62.1211 12.3037C62.4785 12.3037 62.8857 12.2041 63.3428 12.0049L63.958 13.6572C63.3193 13.9678 62.6396 14.123 61.9189 14.123ZM65.6719 14V4.82422H67.5791V6.0459C68.3701 5.14355 69.3105 4.69238 70.4004 4.69238C70.8164 4.69238 71.2324 4.76562 71.6484 4.91211L71.1387 6.85449C70.7285 6.71973 70.3447 6.65234 69.9873 6.65234C69.1963 6.65234 68.6016 6.92773 68.2031 7.47852C67.8105 8.0293 67.6143 8.73828 67.6143 9.60547V14H65.6719ZM73.1426 14V4.82422H75.085V14H73.1426ZM73.0986 3.24219C72.8408 2.97852 72.7119 2.63574 72.7119 2.21387C72.7119 1.79199 72.8408 1.44922 73.0986 1.18555C73.3564 0.921875 73.6934 0.790039 74.1094 0.790039C74.5254 0.790039 74.8623 0.921875 75.1201 1.18555C75.3838 1.44922 75.5156 1.79199 75.5156 2.21387C75.5156 2.63574 75.3838 2.97852 75.1201 3.24219C74.8623 3.5 74.5254 3.62891 74.1094 3.62891C73.6934 3.62891 73.3564 3.5 73.0986 3.24219ZM81.9756 14.2197C80.6162 14.2197 79.4883 13.7656 78.5918 12.8574C77.7012 11.9434 77.2559 10.7949 77.2559 9.41211C77.2559 8.02344 77.7012 6.875 78.5918 5.9668C79.4883 5.05859 80.6221 4.60449 81.9932 4.60449C82.7607 4.60449 83.4727 4.75098 84.1289 5.04395C84.7852 5.33105 85.3271 5.74121 85.7549 6.27441L84.5684 7.52246C84.2344 7.1709 83.8447 6.90137 83.3994 6.71387C82.9541 6.52051 82.4971 6.42383 82.0283 6.42383C81.2021 6.42383 80.5225 6.70508 79.9893 7.26758C79.4619 7.82422 79.1982 8.53906 79.1982 9.41211C79.1982 10.2969 79.4561 11.0176 79.9717 11.5742C80.4873 12.125 81.1787 12.4004 82.0459 12.4004C82.5732 12.4004 83.0625 12.2949 83.5137 12.084C83.9707 11.8672 84.3574 11.5566 84.6738 11.1523L85.9658 12.3477C85.5557 12.9453 85.002 13.4082 84.3047 13.7363C83.6074 14.0586 82.8311 14.2197 81.9756 14.2197Z" fill="#FAFAFA"/>
</svg>

