<svg width="465" height="26" viewBox="0 0 465 26" fill="none"
                    xmlns="http://www.w3.org/2000/svg">
                    <path
                        d="M0.333333 23C0.333333 24.4728 1.52724 25.6667 3 25.6667C4.47276 25.6667 5.66667 24.4728 5.66667 23C5.66667 21.5272 4.47276 20.3333 3 20.3333C1.52724 20.3333 0.333333 21.5272 0.333333 23ZM462 23L464.887 18H459.113L462 23ZM3.5 23V21.5H2.5V23H3.5ZM3.5 18.5V17H2.5V18.5H3.5ZM3.5 17C3.5 15.9642 3.60153 14.9526 3.79504 13.9744L2.81405 13.7804C2.60797 14.8221 2.5 15.8987 2.5 17H3.5ZM6.11044 8.38831C7.24221 6.6978 8.6978 5.24221 10.3883 4.11044L9.83199 3.27947C8.03286 4.48396 6.48396 6.03286 5.27947 7.83199L6.11044 8.38831ZM15.9744 1.79504C16.9526 1.60153 17.9642 1.5 19 1.5V0.5C17.8987 0.5 16.8221 0.607969 15.7804 0.814051L15.9744 1.79504ZM19 1.5H21.9653V0.5H19V1.5ZM27.8958 1.5H33.8264V0.5H27.8958V1.5ZM39.7569 1.5H45.6875V0.5H39.7569V1.5ZM51.6181 1.5H57.5486V0.5H51.6181V1.5ZM63.4792 1.5H69.4097V0.5H63.4792V1.5ZM75.3403 1.5H81.2708V0.5H75.3403V1.5ZM87.2014 1.5H93.132V0.5H87.2014V1.5ZM99.0625 1.5H104.993V0.5H99.0625V1.5ZM110.924 1.5H116.854V0.5H110.924V1.5ZM122.785 1.5H128.715V0.5H122.785V1.5ZM134.646 1.5H140.576V0.5H134.646V1.5ZM146.507 1.5H152.438V0.5H146.507V1.5ZM158.368 1.5H164.299V0.5H158.368V1.5ZM170.229 1.5H176.16V0.5H170.229V1.5ZM182.09 1.5H188.021V0.5H182.09V1.5ZM193.951 1.5H199.882V0.5H193.951V1.5ZM205.813 1.5H211.743V0.5H205.813V1.5ZM217.674 1.5H223.604V0.5H217.674V1.5ZM229.535 1.5H235.465V0.5H229.535V1.5ZM241.396 1.5H247.326V0.5H241.396V1.5ZM253.257 1.5H259.188V0.5H253.257V1.5ZM265.118 1.5H271.049V0.5H265.118V1.5ZM276.979 1.5H282.91V0.5H276.979V1.5ZM288.84 1.5H294.771V0.5H288.84V1.5ZM300.701 1.5H306.632V0.5H300.701V1.5ZM312.562 1.5H318.493V0.5H312.562V1.5ZM324.424 1.5H330.354V0.5H324.424V1.5ZM336.285 1.5H342.215V0.5H336.285V1.5ZM348.146 1.5H354.076V0.5H348.146V1.5ZM360.007 1.5H365.937V0.5H360.007V1.5ZM371.868 1.5H377.798V0.5H371.868V1.5ZM383.729 1.5H389.66V0.5H383.729V1.5ZM395.59 1.5H401.521V0.5H395.59V1.5ZM407.451 1.5H413.382V0.5H407.451V1.5ZM419.312 1.5H425.243V0.5H419.312V1.5ZM431.173 1.5H437.104V0.5H431.173V1.5ZM443.034 1.5H446V0.5H443.034V1.5ZM446 1.5C447.036 1.5 448.047 1.60153 449.026 1.79504L449.22 0.814051C448.178 0.607969 447.101 0.5 446 0.5V1.5ZM454.612 4.11044C456.302 5.24221 457.758 6.6978 458.89 8.38831L459.721 7.83199C458.516 6.03286 456.967 4.48396 455.168 3.27947L454.612 4.11044ZM461.205 13.9744C461.398 14.9526 461.5 15.9642 461.5 17H462.5C462.5 15.8987 462.392 14.8221 462.186 13.7804L461.205 13.9744ZM461.5 17V18.5H462.5V17H461.5Z"
                        fill="url(#paint0_linear_376_957)" />
                    <defs>
                        <linearGradient id="paint0_linear_376_957" x1="232.5" y1="1" x2="232.5" y2="23.0086"
                            gradientUnits="userSpaceOnUse">
                            <stop offset="0.0203954" stop-color="#1F1DB3" />
                            <stop offset="0.160483" stop-color="#1F1DB3" stop-opacity="0.94" />
                            <stop offset="0.534928" stop-color="#3562D0" />
                            <stop offset="0.854612" stop-color="#30C6E7" />
                            <stop offset="1" stop-color="#13E3F0" />
                        </linearGradient>
                    </defs>
                </svg>