<svg width="246" height="43" viewBox="0 0 246 43" fill="none" xmlns="http://www.w3.org/2000/svg">
<path d="M245.667 3C245.667 4.47276 244.473 5.66667 243 5.66667C241.527 5.66667 240.333 4.47276 240.333 3C240.333 1.52724 241.527 0.333333 243 0.333333C244.473 0.333333 245.667 1.52724 245.667 3ZM3 43L0.113251 38H5.88675L3 43ZM243.5 3V3.93506H242.5V3H243.5ZM243.5 5.80519V6.74026H242.5V5.80519H243.5ZM243.5 6.74026C243.5 7.84158 243.392 8.91817 243.186 9.95988L242.205 9.76582C242.398 8.78767 242.5 7.77607 242.5 6.74026H243.5ZM240.721 15.9083C239.516 17.7074 237.967 19.2563 236.168 20.4608L235.612 19.6298C237.302 18.4981 238.758 17.0425 239.89 15.352L240.721 15.9083ZM230.22 22.9262C229.178 23.1323 228.101 23.2403 227 23.2403V22.2403C228.036 22.2403 229.047 22.1387 230.026 21.9452L230.22 22.9262ZM227 23.2403H223.941V22.2403H227V23.2403ZM217.824 23.2403H211.706V22.2403H217.824V23.2403ZM205.588 23.2403H199.471V22.2403H205.588V23.2403ZM193.353 23.2403H187.235V22.2403H193.353V23.2403ZM181.118 23.2403H175V22.2403H181.118V23.2403ZM168.882 23.2403H162.765V22.2403H168.882V23.2403ZM156.647 23.2403H150.529V22.2403H156.647V23.2403ZM144.412 23.2403H138.294V22.2403H144.412V23.2403ZM132.176 23.2403H126.059V22.2403H132.176V23.2403ZM119.941 23.2403H113.824V22.2403H119.941V23.2403ZM107.706 23.2403H101.588V22.2403H107.706V23.2403ZM95.4706 23.2403H89.353V22.2403H95.4706V23.2403ZM83.2353 23.2403H77.1177V22.2403H83.2353V23.2403ZM71 23.2403H64.8824V22.2403H71V23.2403ZM58.7647 23.2403H52.6471V22.2403H58.7647V23.2403ZM46.5294 23.2403H40.4118V22.2403H46.5294V23.2403ZM34.2942 23.2403H28.1765V22.2403H34.2942V23.2403ZM22.0589 23.2403H19V22.2403H22.0589V23.2403ZM19 23.2403C17.9642 23.2403 16.9526 23.3418 15.9744 23.5353L15.7804 22.5543C16.8221 22.3482 17.8987 22.2403 19 22.2403V23.2403ZM10.3883 25.8507C8.6978 26.9825 7.2422 28.4381 6.11044 30.1286L5.27946 29.5723C6.48396 27.7731 8.03285 26.2242 9.83199 25.0197L10.3883 25.8507ZM3.79504 35.7147C3.60153 36.6928 3.5 37.7044 3.5 38.7403H2.5C2.5 37.6389 2.60797 36.5623 2.81406 35.5206L3.79504 35.7147ZM3.5 38.7403V39.8052H2.5V38.7403H3.5Z" fill="url(#paint0_linear_478_1416)"/>
<defs>
<linearGradient id="paint0_linear_478_1416" x1="123" y1="3" x2="123" y2="43.0157" gradientUnits="userSpaceOnUse">
<stop offset="0.0203954" stop-color="#1F1DB3"/>
<stop offset="0.160483" stop-color="#1F1DB3" stop-opacity="0.94"/>
<stop offset="0.534928" stop-color="#3562D0"/>
<stop offset="0.854612" stop-color="#30C6E7"/>
<stop offset="1" stop-color="#13E3F0"/>
</linearGradient>
</defs>
</svg>
