<svg width="465" height="26" viewBox="0 0 465 26" fill="none"
                    xmlns="http://www.w3.org/2000/svg">
                    <path
                        d="M0.333333 3C0.333333 1.52724 1.52724 0.333334 3 0.333334C4.47276 0.333334 5.66667 1.52724 5.66667 3C5.66667 4.47276 4.47276 5.66667 3 5.66667C1.52724 5.66667 0.333333 4.47276 0.333333 3ZM462 3L464.887 8H459.113L462 3ZM3.5 3V4.5H2.5V3H3.5ZM3.5 7.5V9H2.5V7.5H3.5ZM3.5 9C3.5 10.0358 3.60153 11.0474 3.79504 12.0256L2.81405 12.2196C2.60797 11.1779 2.5 10.1013 2.5 9H3.5ZM6.11044 17.6117C7.24221 19.3022 8.6978 20.7578 10.3883 21.8896L9.83199 22.7205C8.03286 21.516 6.48396 19.9671 5.27947 18.168L6.11044 17.6117ZM15.9744 24.205C16.9526 24.3985 17.9642 24.5 19 24.5V25.5C17.8987 25.5 16.8221 25.392 15.7804 25.1859L15.9744 24.205ZM19 24.5H21.9653V25.5H19V24.5ZM27.8958 24.5H33.8264V25.5H27.8958V24.5ZM39.7569 24.5H45.6875V25.5H39.7569V24.5ZM51.6181 24.5H57.5486V25.5H51.6181V24.5ZM63.4792 24.5H69.4097V25.5H63.4792V24.5ZM75.3403 24.5H81.2708V25.5H75.3403V24.5ZM87.2014 24.5H93.132V25.5H87.2014V24.5ZM99.0625 24.5H104.993V25.5H99.0625V24.5ZM110.924 24.5H116.854V25.5H110.924V24.5ZM122.785 24.5H128.715V25.5H122.785V24.5ZM134.646 24.5H140.576V25.5H134.646V24.5ZM146.507 24.5H152.438V25.5H146.507V24.5ZM158.368 24.5H164.299V25.5H158.368V24.5ZM170.229 24.5H176.16V25.5H170.229V24.5ZM182.09 24.5H188.021V25.5H182.09V24.5ZM193.951 24.5H199.882V25.5H193.951V24.5ZM205.813 24.5H211.743V25.5H205.813V24.5ZM217.674 24.5H223.604V25.5H217.674V24.5ZM229.535 24.5H235.465V25.5H229.535V24.5ZM241.396 24.5H247.326V25.5H241.396V24.5ZM253.257 24.5H259.188V25.5H253.257V24.5ZM265.118 24.5H271.049V25.5H265.118V24.5ZM276.979 24.5H282.91V25.5H276.979V24.5ZM288.84 24.5H294.771V25.5H288.84V24.5ZM300.701 24.5H306.632V25.5H300.701V24.5ZM312.562 24.5H318.493V25.5H312.562V24.5ZM324.424 24.5H330.354V25.5H324.424V24.5ZM336.285 24.5H342.215V25.5H336.285V24.5ZM348.146 24.5H354.076V25.5H348.146V24.5ZM360.007 24.5H365.937V25.5H360.007V24.5ZM371.868 24.5H377.798V25.5H371.868V24.5ZM383.729 24.5H389.66V25.5H383.729V24.5ZM395.59 24.5H401.521V25.5H395.59V24.5ZM407.451 24.5H413.382V25.5H407.451V24.5ZM419.312 24.5H425.243V25.5H419.312V24.5ZM431.173 24.5H437.104V25.5H431.173V24.5ZM443.034 24.5H446V25.5H443.034V24.5ZM446 24.5C447.036 24.5 448.047 24.3985 449.026 24.205L449.22 25.1859C448.178 25.392 447.101 25.5 446 25.5V24.5ZM454.612 21.8896C456.302 20.7578 457.758 19.3022 458.89 17.6117L459.721 18.168C458.516 19.9671 456.967 21.516 455.168 22.7205L454.612 21.8896ZM461.205 12.0256C461.398 11.0474 461.5 10.0358 461.5 9H462.5C462.5 10.1013 462.392 11.1779 462.186 12.2196L461.205 12.0256ZM461.5 9V7.5H462.5V9H461.5Z"
                        fill="url(#paint0_linear_376_956)" />
                    <defs>
                        <linearGradient id="paint0_linear_376_956" x1="232.5" y1="25" x2="232.5" y2="2.99136"
                            gradientUnits="userSpaceOnUse">
                            <stop offset="0.0203954" stop-color="#1F1DB3" />
                            <stop offset="0.160483" stop-color="#1F1DB3" stop-opacity="0.94" />
                            <stop offset="0.534928" stop-color="#3562D0" />
                            <stop offset="0.854612" stop-color="#30C6E7" />
                            <stop offset="1" stop-color="#13E3F0" />
                        </linearGradient>
                    </defs>
</svg>