<svg width="246" height="43" viewBox="0 0 246 43" fill="none" xmlns="http://www.w3.org/2000/svg">
<path d="M0.333333 3C0.333333 4.47276 1.52724 5.66667 3 5.66667C4.47276 5.66667 5.66667 4.47276 5.66667 3C5.66667 1.52724 4.47276 0.333333 3 0.333333C1.52724 0.333333 0.333333 1.52724 0.333333 3ZM243 43L245.887 38H240.113L243 43ZM2.5 3V3.93506H3.5V3H2.5ZM2.5 5.80519V6.74026H3.5V5.80519H2.5ZM2.5 6.74026C2.5 7.84158 2.60797 8.91817 2.81405 9.95988L3.79504 9.76582C3.60153 8.78767 3.5 7.77607 3.5 6.74026H2.5ZM5.27947 15.9083C6.48396 17.7074 8.03286 19.2563 9.83199 20.4608L10.3883 19.6298C8.6978 18.4981 7.24221 17.0425 6.11044 15.352L5.27947 15.9083ZM15.7804 22.9262C16.8221 23.1323 17.8987 23.2403 19 23.2403V22.2403C17.9642 22.2403 16.9526 22.1387 15.9744 21.9452L15.7804 22.9262ZM19 23.2403H22.0588V22.2403H19V23.2403ZM28.1765 23.2403H34.2941V22.2403H28.1765V23.2403ZM40.4118 23.2403H46.5294V22.2403H40.4118V23.2403ZM52.6471 23.2403H58.7647V22.2403H52.6471V23.2403ZM64.8824 23.2403H71V22.2403H64.8824V23.2403ZM77.1176 23.2403H83.2353V22.2403H77.1176V23.2403ZM89.3529 23.2403H95.4706V22.2403H89.3529V23.2403ZM101.588 23.2403H107.706V22.2403H101.588V23.2403ZM113.824 23.2403H119.941V22.2403H113.824V23.2403ZM126.059 23.2403H132.176V22.2403H126.059V23.2403ZM138.294 23.2403H144.412V22.2403H138.294V23.2403ZM150.529 23.2403H156.647V22.2403H150.529V23.2403ZM162.765 23.2403H168.882V22.2403H162.765V23.2403ZM175 23.2403H181.118V22.2403H175V23.2403ZM187.235 23.2403H193.353V22.2403H187.235V23.2403ZM199.471 23.2403H205.588V22.2403H199.471V23.2403ZM211.706 23.2403H217.823V22.2403H211.706V23.2403ZM223.941 23.2403H227V22.2403H223.941V23.2403ZM227 23.2403C228.036 23.2403 229.047 23.3418 230.026 23.5353L230.22 22.5543C229.178 22.3482 228.101 22.2403 227 22.2403V23.2403ZM235.612 25.8507C237.302 26.9825 238.758 28.4381 239.89 30.1286L240.721 29.5723C239.516 27.7731 237.967 26.2242 236.168 25.0197L235.612 25.8507ZM242.205 35.7147C242.398 36.6928 242.5 37.7044 242.5 38.7403H243.5C243.5 37.6389 243.392 36.5623 243.186 35.5206L242.205 35.7147ZM242.5 38.7403V39.8052H243.5V38.7403H242.5Z" fill="url(#paint0_linear_478_1415)"/>
<defs>
<linearGradient id="paint0_linear_478_1415" x1="123" y1="3" x2="123" y2="43.0157" gradientUnits="userSpaceOnUse">
<stop offset="0.0203954" stop-color="#1F1DB3"/>
<stop offset="0.160483" stop-color="#1F1DB3" stop-opacity="0.94"/>
<stop offset="0.534928" stop-color="#3562D0"/>
<stop offset="0.854612" stop-color="#30C6E7"/>
<stop offset="1" stop-color="#13E3F0"/>
</linearGradient>
</defs>
</svg>
