<svg width="46" height="55" viewBox="0 0 46 55" fill="none"
                        xmlns="http://www.w3.org/2000/svg">
                        <path
                            d="M44.6666 9.66666L27.9999 1.33333L11.3333 9.66666V26.3333L27.9999 34.6667L44.6666 26.3333V9.66666Z"
                            stroke="#04B937" stroke-width="2" stroke-linejoin="round" />
                        <path
                            d="M11.3333 9.66666L27.9999 18M27.9999 18V34.6667M27.9999 18L44.6666 9.66666M36.3333 5.49999L19.6666 13.8333"
                            stroke="#04B937" stroke-width="2" stroke-linecap="round" stroke-linejoin="round" />
                        <path
                            d="M34.6666 28.6667L17.9999 20.3333L1.33325 28.6667V45.3333L17.9999 53.6667L34.6666 45.3333V28.6667Z"
                            fill="#1F1DB2" fill-opacity="0.05" />
                        <path
                            d="M34.6666 28.6667L17.9999 20.3333L1.33325 28.6667V45.3333L17.9999 53.6667L34.6666 45.3333V28.6667Z"
                            fill="#F3F3F8" />
                        <path
                            d="M34.6666 28.6667L17.9999 20.3333L1.33325 28.6667V45.3333L17.9999 53.6667L34.6666 45.3333V28.6667Z"
                            stroke="#3562D0" stroke-width="2" stroke-linejoin="round" />
                        <path
                            d="M1.33325 28.6667L17.9999 37ZM17.9999 53.6667V37ZM34.6666 28.6667L17.9999 37ZM26.3333 24.5L9.66659 32.8333Z"
                            fill="#F3F3F8" />
                        <path
                            d="M1.33325 28.6667L17.9999 37M17.9999 37V53.6667M17.9999 37L34.6666 28.6667M26.3333 24.5L9.66659 32.8333"
                            stroke="#3562D0" stroke-width="2" stroke-linecap="round" stroke-linejoin="round" />
                    </svg>