<svg width="49" height="60" viewBox="0 0 49 60" fill="none"
                        xmlns="http://www.w3.org/2000/svg">
                        <path
                            d="M12.3333 10H45.6666V16.6667L44.5016 17.3667C43.595 17.9106 42.5576 18.198 41.5003 18.198C40.4431 18.198 39.4057 17.9106 38.4991 17.3667L37.3333 16.6667L36.1683 17.3667C35.2617 17.9106 34.2243 18.198 33.167 18.198C32.1097 18.198 31.0723 17.9106 30.1658 17.3667L28.9999 16.6667L27.8349 17.3667C26.9282 17.9108 25.8907 18.1982 24.8333 18.1982C23.7758 18.1982 22.7383 17.9108 21.8316 17.3667L20.6666 16.6667L19.5008 17.3667C18.5943 17.9105 17.557 18.1977 16.4999 18.1977C15.4428 18.1977 14.4056 17.9105 13.4991 17.3667L12.3333 16.6667V10Z"
                            stroke="#04B937" stroke-width="2" stroke-linecap="round" stroke-linejoin="round" />
                        <path d="M15.6665 18.7408V36.6667H42.3332V18.3333M15.6665 9.85167V3.33334H42.3332V10"
                            stroke="#04B937" stroke-width="2" stroke-linecap="round" stroke-linejoin="round" />
                        <path d="M24.8333 26.6667H33.1666V36.6667H24.8333V26.6667Z" stroke="#04B937" stroke-width="2"
                            stroke-linecap="round" stroke-linejoin="round" />
                        <path
                            d="M3.33325 30H36.6666V36.6667L35.5016 37.3667C34.595 37.9106 33.5576 38.198 32.5003 38.198C31.4431 38.198 30.4057 37.9106 29.4991 37.3667L28.3333 36.6667L27.1683 37.3667C26.2617 37.9106 25.2243 38.198 24.167 38.198C23.1097 38.198 22.0723 37.9106 21.1658 37.3667L19.9999 36.6667L18.8349 37.3667C17.9282 37.9108 16.8907 38.1982 15.8333 38.1982C14.7758 38.1982 13.7383 37.9108 12.8316 37.3667L11.6666 36.6667L10.5008 37.3667C9.59425 37.9105 8.55702 38.1977 7.49992 38.1977C6.44282 38.1977 5.40558 37.9105 4.49909 37.3667L3.33325 36.6667V30Z"
                            fill="#F3F3F8" stroke="#3562D0" stroke-width="2" stroke-linecap="round"
                            stroke-linejoin="round" />
                        <path
                            d="M6.6665 39.4994L6.6665 56.6667H33.3332V39.4994M6.6665 28.9994L6.6665 23.3333H33.3332V28.9994"
                            fill="#F3F3F8" />
                        <path
                            d="M6.6665 39.4994L6.6665 56.6667H33.3332V39.4994M6.6665 28.9994L6.6665 23.3333H33.3332V28.9994"
                            stroke="#3562D0" stroke-width="2" stroke-linecap="round" stroke-linejoin="round" />
                        <path d="M15.8333 46.6667H24.1666V56.6667H15.8333V46.6667Z" fill="#F3F3F8" stroke="#3562D0"
                            stroke-width="2" stroke-linecap="round" stroke-linejoin="round" />
                    </svg>